# xmcd CD database file
#
# Track frame offsets:
#	150
#	17542
#	37589
#	54848
#	71561
#	88745
#	111006
#	129186
#	148448
#	166696
#	180353
#	194181
#
# Disc length: 2856 seconds
#
# Revision: 0
# Processed by: cddbd v1.5.1PL2 Copyright (c) Steve Scherf et al.
# Submitted via: CDex 1.51
#
DISCID=970b260c
DTITLE=Jaheim - Ghetto Classics
DYEAR=2006
DGENRE=R&B
TTITLE0=The Chosen One
TTITLE1=Everytime I Think About Her (Feat.Jadakiss)
TTITLE2=Daddy Thing
TTITLE3=Forgetful
TTITLE4=Like A DJ
TTITLE5=Fiend (Feat.Styles P)
TTITLE6=I Ain't Never
TTITLE7=125th
TTITLE8=Masterpiece
TTITLE9=Conversation
TTITLE10=Come Over
TTITLE11=Everytime I think About Her(Radio Edit without Jadakss)
EXTD=YEAR: 2006
EXTT0=
EXTT1=
EXTT2=
EXTT3=
EXTT4=
EXTT5=
EXTT6=
EXTT7=
EXTT8=
EXTT9=
EXTT10=
EXTT11=
PLAYORDER=
